<svg width="783" height="376" viewBox="0 0 783 376" fill="none" xmlns="http://www.w3.org/2000/svg">
<path opacity="0.2" d="M673.348 104.703C586.599 -115.461 221.555 49.1492 82.6273 253.314C59.2187 287.714 44.0721 302.85 15.1554 388.164C-9.28081 460.258 -20.646 635.849 114.297 657.865C249.241 679.881 403.462 955.086 645.809 922.062C888.156 889.037 904.68 675.753 760.098 549.159C615.516 422.565 760.097 324.867 673.348 104.703Z" transform="translate(576.957 322.757) rotate(-167.155)" fill="#00B4FF"/>
<path opacity="0.2" d="M672.89 104.774C586.2 -115.54 221.404 49.1826 82.571 253.486C59.1784 287.91 44.0421 303.057 15.1451 388.428C-9.27449 460.572 -20.6319 636.282 114.22 658.313C249.071 680.344 403.187 955.737 645.369 922.69C887.551 889.642 904.064 676.214 759.58 549.533C615.097 422.853 759.58 325.088 672.89 104.774Z" transform="matrix(-0.323013 0.946395 -0.946441 -0.322877 735.061 -500.288)" fill="#00B4FF"/>
<path opacity="0.2" d="M630.448 49.4144C505.276 -41.0889 334.711 4.83817 103.624 89.9382C95.8296 89.9382 77.4893 99.9341 66.4852 139.917C52.73 189.897 87.1179 235.824 15.5909 442.495C-55.936 649.167 135.261 723.461 252.18 862.593C369.099 1001.72 612.566 955.797 630.448 904.467C648.33 853.137 692.346 715.356 861.535 593.784C1030.72 472.213 977.079 288.505 890.421 188.546C803.763 88.5872 755.62 139.918 630.448 49.4144Z" transform="translate(502.815 338.184) rotate(-167.155)" fill="#00B4FF"/>
<path opacity="0.1" d="M418.367 40.0861C496.855 159.8 591.866 297.403 900.308 613.888C916.372 635.446 941.617 691.496 914.077 743.235C879.653 807.908 714.416 785.892 546.426 723.97C378.435 662.049 107.172 689.57 13.5375 384.092C-80.0966 78.6148 339.88 -79.6281 418.367 40.0861Z" transform="translate(528.305 375.046) rotate(-167.155)" fill="#EA36A4"/>
<path opacity="0.2" d="M880.99 512.332C835.549 738 682.706 791.665 436.228 817.81C405.475 830.653 318.359 848.633 215.912 817.81C87.8536 779.281 67.199 687.087 21.7589 568.749C-23.6812 450.411 -4.40361 230.247 141.555 105.029C287.515 -20.1896 498.191 -21.5656 697.852 38.9795C897.513 99.5246 926.43 286.664 880.99 512.332Z" transform="translate(564.136 365.331) rotate(-167.155)" fill="#EA36A4"/>
</svg>
